<?xml version="1.0" standalone="no"?><!DOCTYPE svg PUBLIC "-//W3C//DTD SVG 1.1//EN" "http://www.w3.org/Graphics/SVG/1.1/DTD/svg11.dtd"><svg t="1635951305209" class="icon" viewBox="0 0 1024 1024" version="1.1" xmlns="http://www.w3.org/2000/svg" p-id="9657" width="128" height="128" xmlns:xlink="http://www.w3.org/1999/xlink"><defs><style type="text/css"></style></defs><path d="M347.26076 350.946915c0 48.807413 39.717174 88.51321 88.513211 88.51321s88.51321-39.705797 88.51321-88.51321-39.717174-88.51321-88.51321-88.513211-88.51321 39.705797-88.513211 88.513211z m88.513211-67.693265c37.328 0 67.693265 30.365265 67.693265 67.693265s-30.365265 67.693265-67.693265 67.693265-67.693265-30.365265-67.693265-67.693265 30.376642-67.693265 67.693265-67.693265zM302.731107 563.162456c0 13.641046 11.092594 28.442548 24.73364 28.442548h210.873053c13.641046 0 24.73364-14.801502 24.73364-28.442548s-11.081217-28.442548-24.722263-28.442548H327.464747c-13.629669 0-24.73364 14.801502-24.73364 28.442548z m239.520387 0c0 2.116126-1.786192 5.68851-3.902317 5.688509H327.464747c-2.116126 0-3.902318-3.572384-3.902318-5.688509s1.786192-5.68851 3.902318-5.68851h210.873053c2.127503 0 3.913695 3.572384 3.913694 5.68851z" p-id="9658"></path><path d="M697.468169 339.183077L453.158056 20.0008C449.255739 14.903895 443.316934 11.377019 436.900296 11.377019h-0.273049c-6.325623 0-11.206364 3.276582-15.176944 8.202831L170.689421 331.594605v-0.182033c0 4.141235-5.847788 9.23814-5.187921 14.494323 0.64849 5.26756 2.855632 9.875253 7.122014 13.072195l26.14439 19.77326c4.425661 3.310713 12.184788 4.755594 17.668511 3.936449 3.390352-0.500589 11.138102-1.843077 11.138102-3.754417V606.508899c0 17.702642 10.148301 30.604182 27.850944 30.604182H352.72173v33.43706c0 13.97098 10.136924 34.825056 24.119281 34.825056H386.852788v295.154012c0 13.982357 9.260894 23.402529 23.24325 23.402529h45.621847C469.700242 1023.931738 477.868942 1014.511566 477.868942 1000.529209V705.375197h16.837989c13.982357 0 28.670089-20.854076 28.670088-34.825056V637.113081h73.97338C615.053041 637.113081 625.770193 624.222918 625.770193 606.508899V382.563651l4.095727 3.253828c3.117303 4.5053 9.010599 7.622603 14.562585 8.532764 1.149079 0.193409 2.764616 0.284425 3.913694 0.284426 4.516677 0 9.204009-1.433504 12.810524-4.118481l32.231096-23.880364c4.300513-3.208319 7.133391-7.827389 7.86152-13.026687a19.193032 19.193032 0 0 0-3.77717-14.42606zM466.491923 1000.529209c0 2.502944-8.28247 0.64849-10.774038 0.64849h-45.621847c-2.491567 0-0.489212 1.854454-0.489212-0.64849V705.375197h56.885097v295.154012z m34.131058-329.979068c0 2.491567-3.424483 12.071017-5.91605 12.071018H376.841011c-2.491567 0-12.742262-9.57945-12.742262-12.071018V637.113081h136.524232v33.43706z m102.393173-64.041242c0 6.22323 0.546097 7.850143-5.665755 7.850144H255.425461c-6.211853 0-16.473924-1.626914-16.473924-7.850144V352.824123L428.196876 99.321379 603.016154 352.437304V606.508899z m45.826634-232.546274L449.710819 87.034198c-3.572384-5.165167-9.442926-7.395063-15.711663-7.395063h-0.352688c-6.132213 0-11.957247 1.877208-15.632025 6.803458l-207.004866 276.120258-25.200098-19.1589 250.817768-310.137547L680.038575 350.742128l-31.195787 23.220497z" p-id="9659"></path></svg>